HIERARCHY
ROOT Hips
{
	OFFSET 0.00000 0.00000 0.00000
	CHANNELS 6 Xposition Yposition Zposition Zrotation Yrotation Xrotation 
	JOINT LHipJoint
	{
		OFFSET 0 0 0
		CHANNELS 3 Zrotation Yrotation Xrotation
		JOINT LeftUpLeg
		{
			OFFSET 1.48211 -1.84579 0.74791
			CHANNELS 3 Zrotation Yrotation Xrotation
			JOINT LeftLeg
			{
				OFFSET 2.56990 -7.06075 0.00000
				CHANNELS 3 Zrotation Yrotation Xrotation
				JOINT LeftFoot
				{
					OFFSET 2.57933 -7.08667 0.00000
					CHANNELS 3 Zrotation Yrotation Xrotation
					JOINT LeftToeBase
					{
						OFFSET 0.22969 -0.63106 2.10885
						CHANNELS 3 Zrotation Yrotation Xrotation
						End Site
						{
							OFFSET 0.00000 -0.00000 1.10362
						}
					}
				}
			}
		}
	}
	JOINT RHipJoint
	{
		OFFSET 0 0 0
		CHANNELS 3 Zrotation Yrotation Xrotation
		JOINT RightUpLeg
		{
			OFFSET -1.46257 -1.84580 0.74791
			CHANNELS 3 Zrotation Yrotation Xrotation
			JOINT RightLeg
			{
				OFFSET -2.63352 -7.23555 0.00000
				CHANNELS 3 Zrotation Yrotation Xrotation
				JOINT RightFoot
				{
					OFFSET -2.53360 -6.96100 0.00000
					CHANNELS 3 Zrotation Yrotation Xrotation
					JOINT RightToeBase
					{
						OFFSET -0.19079 -0.52420 2.00624
						CHANNELS 3 Zrotation Yrotation Xrotation
						End Site
						{
							OFFSET -0.00000 -0.00000 1.04369
						}
					}
				}
			}
		}
	}
	JOINT LowerBack
	{
		OFFSET 0 0 0
		CHANNELS 3 Zrotation Yrotation Xrotation
		JOINT Spine
		{
			OFFSET -0.02583 2.09021 -0.27313
			CHANNELS 3 Zrotation Yrotation Xrotation
			JOINT Spine1
			{
				OFFSET 0.02621 2.11682 -0.03538
				CHANNELS 3 Zrotation Yrotation Xrotation
				JOINT Neck
				{
					OFFSET 0 0 0
					CHANNELS 3 Zrotation Yrotation Xrotation
					JOINT Neck1
					{
						OFFSET 0.02848 1.69944 0.27193
						CHANNELS 3 Zrotation Yrotation Xrotation
						JOINT Head
						{
							OFFSET -0.09826 1.73070 -0.26626
							CHANNELS 3 Zrotation Yrotation Xrotation
							End Site
							{
								OFFSET -0.03061 1.75878 -0.12207
							}
						}
					}
				}
				JOINT LeftShoulder
				{
					OFFSET 0 0 0
					CHANNELS 3 Zrotation Yrotation Xrotation
					JOINT LeftArm
					{
						OFFSET 3.42696 0.97228 -0.33778
						CHANNELS 3 Zrotation Yrotation Xrotation
						JOINT LeftForeArm
						{
							OFFSET 5.25525 -0.00000 0.00000
							CHANNELS 3 Zrotation Yrotation Xrotation
							JOINT LeftHand
							{
								OFFSET 3.35106 -0.00000 0.00000
								CHANNELS 3 Zrotation Yrotation Xrotation
								JOINT LeftFingerBase
								{
									OFFSET 0 0 0
									CHANNELS 3 Zrotation Yrotation Xrotation
									JOINT LeftHandIndex1
									{
										OFFSET 0.57415 -0.00000 0.00000
										CHANNELS 3 Zrotation Yrotation Xrotation
										End Site
										{
											OFFSET 0.46290 -0.00000 0.00000
										}
									}
								}
								JOINT LThumb
								{
									OFFSET 0 0 0
									CHANNELS 3 Zrotation Yrotation Xrotation
									End Site
									{
										OFFSET 0.46996 -0.00000 0.46996
									}
								}
							}
						}
					}
				}
				JOINT RightShoulder
				{
					OFFSET 0 0 0
					CHANNELS 3 Zrotation Yrotation Xrotation
					JOINT RightArm
					{
						OFFSET -3.28720 1.02454 -0.32654
						CHANNELS 3 Zrotation Yrotation Xrotation
						JOINT RightForeArm
						{
							OFFSET -5.33104 -0.00000 0.00000
							CHANNELS 3 Zrotation Yrotation Xrotation
							JOINT RightHand
							{
								OFFSET -3.39883 -0.00000 0.00000
								CHANNELS 3 Zrotation Yrotation Xrotation
								JOINT RightFingerBase
								{
									OFFSET 0 0 0
									CHANNELS 3 Zrotation Yrotation Xrotation
									JOINT RightHandIndex1
									{
										OFFSET -0.91389 -0.00000 0.00000
										CHANNELS 3 Zrotation Yrotation Xrotation
										End Site
										{
											OFFSET -0.73680 -0.00000 0.00000
										}
									}
								}
								JOINT RThumb
								{
									OFFSET 0 0 0
									CHANNELS 3 Zrotation Yrotation Xrotation
									End Site
									{
										OFFSET -0.74805 -0.00000 0.74805
									}
								}
							}
						}
					}
				}
			}
		}
	}
}
MOTION
Frames: 10
Frame Time: .0083333
-0.6782 17.3303 39.5152 -178.9400 -15.9880 175.3960 0.0000 0.0000 0.0000 -9.4945 -10.4998 -12.0310 5.2347 13.6433 41.8271 0.6846 -1.9948 -15.0784 0.3829 -3.9738 -11.0029 0.0000 0.0000 0.0000 17.3750 1.1627 -6.2053 -3.6526 -11.6832 34.6202 -1.1446 -1.9709 -21.0100 -0.2802 3.4047 -9.4077 0.6390 -1.0550 12.6060 1.4226 -1.6360 3.7317 1.3759 -0.9742 -3.1245 3.7105 1.2613 -15.8634 -7.7268 1.9164 11.2878 -2.8968 0.4166 6.1383 0.0000 -0.0000 0.0000 -86.2139 -27.3167 44.2453 90.1278 -59.9999 -60.1107 -0.0000 0.0000 -18.7880 24.8630 26.0505 11.5031 -7.1250 0.0000 -0.0000 -5.6701 58.2041 -1.8355 0.0000 -0.0000 0.0000 80.3520 31.0263 39.2117 -99.1536 59.6810 -67.9188 0.0000 0.0000 8.2338 -28.6571 5.2528 -2.8643 7.1250 -0.0000 -0.0000 -1.4656 -23.9989 -0.7430
-0.7205 17.3277 39.5438 -179.1960 -16.1879 175.4470 0.0000 0.0000 0.0000 -9.8417 -10.6401 -12.3528 5.1939 13.5989 41.6538 0.5975 -2.2096 -14.0127 0.3854 -3.9864 -11.0385 0.0000 0.0000 0.0000 16.9640 1.3188 -6.3496 -3.7442 -11.8121 35.0704 -1.1786 -2.0382 -21.3362 -0.2262 3.0616 -8.4503 0.2612 -1.1094 12.5674 1.4498 -1.7705 3.8765 1.6330 -1.0477 -2.9385 3.4967 1.4254 -15.6042 -7.8370 2.1808 10.9687 -2.8674 0.5326 6.0099 -0.0000 0.0000 0.0000 -86.3352 -32.1959 43.9609 90.2562 -59.9998 -60.2219 -0.0000 0.0000 -18.1765 25.3715 26.1970 11.8242 -7.1250 0.0000 -0.0000 -5.1674 58.4748 -1.7058 -0.0000 0.0000 0.0000 79.6487 35.0337 40.1504 -100.1562 59.6066 -68.7839 0.0000 0.0000 9.9195 -30.2046 4.8326 -2.8076 7.1250 -0.0000 -0.0000 -2.6397 -24.3930 -1.3152
-0.7706 17.3248 39.5757 -179.5790 -16.4954 175.5610 0.0000 0.0000 0.0000 -10.4143 -10.7463 -12.6340 5.1744 13.5776 41.5708 0.5258 -2.5811 -13.0555 0.2689 -3.3357 -9.2149 0.0000 0.0000 0.0000 16.3498 1.3697 -6.6595 -3.8499 -11.9580 35.5835 -1.1791 -2.2367 -21.4304 -0.1918 2.8202 -7.7785 -0.0822 -1.0795 12.5506 1.2320 -1.7995 4.0958 1.5987 -1.0705 -2.6973 3.6319 1.3952 -16.1601 -7.7909 2.1101 11.1563 -2.8848 0.4965 6.1587 0.0000 0.0000 0.0000 -86.1707 -37.4935 43.9284 89.9566 -60.0000 -59.9624 -0.0000 0.0000 -17.1557 24.9670 26.9923 11.9325 -7.1250 0.0000 -0.0000 -5.9708 59.2106 -2.0775 0.0000 0.0000 0.0000 79.2589 39.5872 40.3617 -100.2876 59.5963 -68.8973 0.0000 0.0000 11.0014 -31.4113 3.7798 -2.3053 7.1250 -0.0000 -0.0000 -3.6091 -25.5519 -1.7026
-0.8317 17.3224 39.6076 -180.3590 -16.8950 175.8240 0.0000 0.0000 0.0000 -11.4861 -10.6168 -12.9183 5.1769 13.5802 41.5813 0.4923 -2.6563 -12.6073 0.3688 -3.9007 -10.7976 0.0000 0.0000 0.0000 15.2643 1.2907 -7.0889 -3.9700 -12.1204 36.1591 -1.1581 -2.6158 -21.4257 -0.1442 2.4472 -6.7433 -0.9895 -1.2180 12.5709 1.0921 -2.0609 3.8154 2.0088 -1.1811 -2.9688 3.5936 1.3257 -14.9829 -8.0036 2.0577 11.0755 -2.9488 0.4718 5.9349 0.0000 -0.0000 0.0000 -86.5907 -41.8726 43.4931 88.3212 -59.9893 -58.5461 -0.0000 0.0000 -15.7337 25.4584 27.0501 12.2165 -7.1250 0.0000 -0.0000 -5.4428 59.3866 -1.9160 0.0000 -0.0000 0.0000 79.0059 43.2147 41.0194 -99.8689 59.6288 -68.5360 0.0000 0.0000 10.3467 -32.4806 2.6499 -1.6858 7.1250 -0.0000 -0.0000 -4.4944 -26.8332 -1.9874
-0.9038 17.3223 39.6465 -180.7210 -16.9807 175.9510 0.0000 0.0000 0.0000 -12.0942 -10.0412 -13.2405 5.2018 13.6075 41.6875 0.4782 -2.6634 -12.4186 0.5275 -4.6541 -12.9246 0.0000 0.0000 0.0000 14.6018 1.3056 -7.5662 -4.1075 -12.3020 36.8090 -1.1538 -2.7519 -21.4537 -0.1431 2.4379 -6.7176 -1.3556 -1.2588 12.6450 0.9962 -2.1940 4.0798 2.1310 -1.2643 -2.7184 3.4767 1.4315 -16.0211 -8.0345 2.2368 11.4861 -2.9293 0.5207 6.2505 -0.0000 -0.0000 0.0000 -86.9980 -47.3576 43.1530 85.5260 -59.9242 -56.1264 -0.0000 0.0000 -15.1462 27.6733 26.9144 13.3538 -7.1250 0.0000 -0.0000 -2.8511 59.7791 -1.0290 -0.0000 -0.0000 0.0000 79.1254 47.9286 41.3815 -98.3949 59.7320 -67.2637 0.0000 0.0000 8.4272 -33.5939 1.6942 -1.1251 7.1250 -0.0000 -0.0000 -5.4150 -27.9323 -2.2569
-0.9830 17.3146 39.6979 -180.4420 -16.8125 176.0260 0.0000 0.0000 0.0000 -12.0519 -9.2413 -13.7577 5.2253 13.6331 41.7872 0.4660 -2.8596 -12.2299 0.5425 -4.7189 -13.1086 0.0000 0.0000 0.0000 14.5962 1.4866 -8.2570 -4.2652 -12.5051 37.5432 -1.1235 -2.8806 -21.2517 -0.1536 2.5257 -6.9609 -1.0045 -1.2519 12.7558 0.9714 -2.1474 4.0895 1.9046 -1.2416 -2.7840 3.4721 1.4860 -16.3213 -7.9478 2.3118 11.7317 -2.8961 0.5545 6.3826 0.0000 -0.0000 0.0000 -87.6498 -52.0622 42.9477 81.9549 -59.7540 -53.0385 -0.0000 0.0000 -14.2158 27.5533 26.9912 13.3222 -7.1250 0.0000 -0.0000 -3.0211 59.8305 -1.0942 0.0000 -0.0000 0.0000 79.8392 51.7540 41.6549 -96.3600 59.8466 -65.5050 0.0000 0.0000 5.6615 -34.4680 0.7447 -0.5112 7.1250 -0.0000 -0.0000 -6.1639 -29.0526 -2.4077
-1.0675 17.3002 39.7515 -180.3870 -16.6781 176.0350 0.0000 0.0000 0.0000 -12.3695 -8.2235 -14.2282 5.2373 13.6462 41.8382 0.4618 -3.2160 -12.1374 0.5863 -4.9026 -13.6310 0.0000 0.0000 0.0000 14.3365 1.6472 -8.8960 -4.4482 -12.7341 38.3810 -1.0672 -3.2458 -20.9362 -0.2476 3.2022 -8.8422 -0.9113 -1.2380 13.0885 0.9021 -2.1277 4.0778 1.7896 -1.2318 -2.9834 3.3750 1.5780 -16.6161 -7.8186 2.4525 11.9894 -2.8267 0.6187 6.5203 -0.0000 0.0000 0.0000 -88.1741 -56.0592 42.7295 77.6563 -59.4164 -49.3310 -0.0000 0.0000 -13.6777 26.9072 25.7201 12.4204 -7.1250 0.0000 -0.0000 -3.2575 58.3271 -1.0627 -0.0000 0.0000 0.0000 81.3512 54.9765 42.2722 -93.2486 59.9601 -62.8130 0.0000 0.0000 3.2329 -35.8165 -0.3959 0.2857 7.1250 -0.0000 -0.0000 -7.3145 -30.4239 -2.6224
-1.1590 17.2993 39.7924 -180.7160 -16.7431 175.9780 0.0000 0.0000 0.0000 -13.2301 -7.4226 -14.3650 5.2151 13.6220 41.7440 0.4786 -3.2833 -12.3565 0.6398 -5.1173 -14.2435 0.0000 0.0000 0.0000 13.6698 1.6114 -9.4470 -4.6724 -13.0051 39.3875 -0.9717 -4.0106 -20.4810 -0.4693 4.3939 -12.1874 -1.3388 -1.3043 13.4281 0.8214 -2.2631 3.8972 1.9840 -1.2871 -3.3391 3.4028 1.7755 -15.8504 -7.9308 2.7390 12.0554 -2.8381 0.7588 6.4315 0.0000 0.0000 0.0000 -88.3021 -58.8965 42.1287 72.5711 -58.8205 -44.9659 -0.0000 0.0000 -13.6416 27.6676 25.1131 12.5447 -7.1250 0.0000 -0.0000 -2.1851 57.8560 -0.6878 0.0000 0.0000 0.0000 83.7764 56.8988 43.7329 -89.4192 59.9987 -59.4970 0.0000 0.0000 2.5448 -36.6246 -1.8689 1.3887 7.1250 -0.0000 -0.0000 -8.0895 -32.2379 -2.5492
-1.2518 17.2964 39.8263 -180.8510 -16.7667 175.8860 0.0000 0.0000 0.0000 -13.8302 -6.4682 -14.4952 5.1619 13.5638 41.5173 0.4998 -3.2526 -12.6377 0.5554 -4.7738 -13.2644 0.0000 0.0000 0.0000 13.2434 1.8086 -9.9280 -4.9367 -13.3122 40.5485 -0.8688 -4.7545 -19.9514 -0.4959 4.5149 -12.5300 -1.6330 -1.3457 13.6500 0.8201 -2.3547 3.8009 2.1742 -1.3257 -3.5451 3.2682 1.9917 -15.5675 -7.9498 3.0908 12.6235 -2.7920 0.9080 6.5851 0.0000 -0.0000 0.0000 -88.0019 -61.2770 41.6351 67.5000 -57.9979 -40.6454 -0.0000 0.0000 -14.4799 28.8626 24.9418 13.0850 -7.1250 0.0000 -0.0000 -0.7829 57.9481 -0.2481 0.0000 -0.0000 0.0000 86.4400 57.8847 45.3691 -85.7124 59.9304 -56.2877 0.0000 0.0000 3.7585 -36.7475 -3.5730 2.6642 7.1250 -0.0000 -0.0000 -8.3398 -34.3428 -2.2007
-1.3529 17.2926 39.8524 -181.2410 -16.8210 175.7650 0.0000 0.0000 0.0000 -14.8188 -5.7402 -14.2088 5.0693 13.4614 41.1213 0.5335 -2.6821 -13.1396 0.5448 -4.7287 -13.1362 0.0000 0.0000 0.0000 12.4989 2.0809 -10.2538 -5.2283 -13.6363 41.7997 -0.7849 -5.2051 -19.4166 -0.4259 4.1884 -11.6074 -2.1282 -1.3608 13.8278 0.7455 -2.4466 3.7464 2.3989 -1.3653 -3.6774 3.1460 2.1672 -15.2001 -8.0312 3.3923 13.2877 -2.7750 1.0229 6.7535 -0.0000 0.0000 0.0000 -87.6360 -63.2050 41.5843 62.3413 -56.9022 -36.2959 -0.0000 0.0000 -17.0128 26.5307 25.4450 12.1065 -7.1250 0.0000 -0.0000 -3.5750 57.9472 -1.1337 -0.0000 0.0000 0.0000 88.7740 57.6154 46.8489 -83.0849 59.8185 -54.0150 0.0000 0.0000 6.2485 -36.0289 -4.4362 3.2199 7.1250 -0.0000 -0.0000 -7.8114 -35.3707 -1.8621
